NFP 09-05-14.ufo
<glyph name="comma" format="1">
  <advance width="202"/>
  <unicode hex="002C"/>
  <outline>
    <contour>
      <point x="-5" y="-112" type="curve"/>
      <point x="61" y="-112" type="line"/>
      <point x="167" y="75" type="line"/>
      <point x="55" y="75" type="line"/>
      <point x="55" y="75"/>
      <point x="-5" y="-112"/>
    </contour>
  </outline>
</glyph>
<glyph name="C" format="1">
  <advance width="710"/>
  <unicode hex="0043"/>
  <outline>
    <contour>
      <point x="546" y="443" type="line"/>
      <point x="520" y="535"/>
      <point x="454" y="591"/>
      <point x="369" y="591" type="curve" smooth="yes"/>
      <point x="245" y="591"/>
      <point x="161" y="470"/>
      <point x="161" y="341" type="curve" smooth="yes"/>
      <point x="161" y="212"/>
      <point x="231" y="94"/>
      <point x="377" y="94" type="curve"/>
      <point x="463" y="94"/>
      <point x="522" y="140"/>
      <point x="556" y="220" type="curve"/>
      <point x="659" y="169" type="line"/>
      <point x="609" y="69"/>
      <point x="521" y="-10"/>
      <point x="384" y="-10" type="curve" smooth="yes"/>
      <point x="170" y="-10"/>
      <point x="43" y="124"/>
      <point x="43" y="337" type="curve" smooth="yes"/>
      <point x="43" y="565"/>
      <point x="194" y="695"/>
      <point x="369" y="695" type="curve" smooth="yes"/>
      <point x="496" y="695"/>
      <point x="615" y="622"/>
      <point x="653" y="493" type="curve"/>
    </contour>
  </outline>
</glyph>
<glyph name="O" format="1">
  <advance width="778"/>
  <unicode hex="004F"/>
  <outline>
    <contour>
      <point x="389" y="602" type="curve" smooth="yes"/>
      <point x="252" y="602"/>
      <point x="172" y="470"/>
      <point x="172" y="337" type="curve" smooth="yes"/>
      <point x="172" y="204"/>
      <point x="233" y="83"/>
      <point x="389" y="83" type="curve" smooth="yes"/>
      <point x="545" y="83"/>
      <point x="606" y="204"/>
      <point x="606" y="337" type="curve" smooth="yes"/>
      <point x="606" y="470"/>
      <point x="526" y="602"/>
    </contour>
    <contour>
      <point x="389" y="695" type="curve" smooth="yes"/>
      <point x="607" y="695"/>
      <point x="723" y="531"/>
      <point x="723" y="337" type="curve" smooth="yes"/>
      <point x="723" y="134"/>
      <point x="599" y="-10"/>
      <point x="389" y="-10" type="curve" smooth="yes"/>
      <point x="179" y="-10"/>
      <point x="55" y="134"/>
      <point x="55" y="337" type="curve" smooth="yes"/>
      <point x="55" y="540"/>
      <point x="171" y="695"/>
    </contour>
  </outline>
</glyph>
<glyph name="R" format="1">
  <advance width="572"/>
  <unicode hex="0052"/>
  <outline>
    <contour>
      <point x="81" y="0" type="line"/>
      <point x="81" y="685" type="line"/>
      <point x="183" y="685" type="line"/>
      <point x="183" y="0" type="line"/>
    </contour>
    <contour>
      <point x="445" y="484" type="curve"/>
      <point x="445" y="554"/>
      <point x="396" y="594"/>
      <point x="320" y="594" type="curve" smooth="yes"/>
      <point x="160" y="594" type="line"/>
      <point x="162" y="685" type="line"/>
      <point x="312" y="685" type="line" smooth="yes"/>
      <point x="474" y="685"/>
      <point x="545" y="582"/>
      <point x="545" y="484" type="curve"/>
      <point x="545" y="386"/>
      <point x="466" y="277"/>
      <point x="304" y="277" type="curve" smooth="yes"/>
      <point x="160" y="277" type="line"/>
      <point x="162" y="372" type="line"/>
      <point x="322" y="372" type="line" smooth="yes"/>
      <point x="398" y="372"/>
      <point x="445" y="414"/>
    </contour>
    <contour>
      <point x="285" y="293" type="line"/>
      <point x="380" y="320" type="line"/>
      <point x="545" y="0" type="line"/>
      <point x="426" y="0" type="line"/>
    </contour>
  </outline>
</glyph>
<glyph name="S" format="1">
  <advance width="648"/>
  <unicode hex="0053"/>
  <outline>
    <contour>
      <point x="494" y="487" type="line"/>
      <point x="455.433333333" y="548.0"/>
      <point x="409" y="579"/>
      <point x="322" y="579" type="curve"/>
      <point x="238" y="579"/>
      <point x="175.0" y="547.0"/>
      <point x="175" y="495" type="curve"/>
      <point x="175" y="347"/>
      <point x="602.0" y="454.0"/>
      <point x="602" y="184" type="curve"/>
      <point x="602.0" y="65.0"/>
      <point x="491" y="-10"/>
      <point x="329" y="-10" type="curve"/>
      <point x="160" y="-10"/>
      <point x="63" y="62"/>
      <point x="29" y="151" type="curve"/>
      <point x="124" y="213" type="line"/>
      <point x="153" y="145"/>
      <point x="230" y="90"/>
      <point x="321" y="90" type="curve"/>
      <point x="414" y="90"/>
      <point x="485" y="116"/>
      <point x="485" y="175" type="curve"/>
      <point x="485.0" y="336.0"/>
      <point x="62" y="214"/>
      <point x="62" y="492" type="curve"/>
      <point x="62" y="616"/>
      <point x="166" y="690"/>
      <point x="321" y="690" type="curve"/>
      <point x="457" y="690"/>
      <point x="538" y="642"/>
      <point x="590" y="558" type="curve"/>
    </contour>
  </outline>
</glyph>
<glyph name="U" format="1">
  <advance width="666"/>
  <unicode hex="0055"/>
  <outline>
    <contour>
      <point x="330" y="-10" type="curve"/>
      <point x="466" y="-10"/>
      <point x="605" y="49"/>
      <point x="605" y="234" type="curve" smooth="yes"/>
      <point x="605" y="685" type="line"/>
      <point x="496" y="685" type="line"/>
      <point x="496" y="233" type="line" smooth="yes"/>
      <point x="496" y="154"/>
      <point x="431" y="87"/>
      <point x="330" y="87" type="curve"/>
      <point x="229" y="87"/>
      <point x="164" y="154"/>
      <point x="164" y="233" type="curve" smooth="yes"/>
      <point x="164" y="685" type="line"/>
      <point x="55" y="685" type="line"/>
      <point x="55" y="234" type="line" smooth="yes"/>
      <point x="55" y="49"/>
      <point x="194" y="-10"/>
    </contour>
  </outline>
</glyph>
<glyph name="V" format="1">
  <advance width="704"/>
  <unicode hex="0056"/>
  <outline>
    <contour>
      <point x="650" y="685" type="line"/>
      <point x="438" y="0" type="line"/>
      <point x="329" y="0" type="line"/>
      <point x="541" y="685" type="line"/>
    </contour>
    <contour>
      <point x="77" y="685" type="line"/>
      <point x="186" y="685" type="line"/>
      <point x="398" y="0" type="line"/>
      <point x="289" y="0" type="line"/>
    </contour>
  </outline>
</glyph>
<glyph name="a" format="1">
  <advance width="558"/>
  <unicode hex="0061"/>
  <outline>
    <contour>
      <point x="65" y="383" type="line"/>
      <point x="120" y="476"/>
      <point x="193" y="505"/>
      <point x="288" y="505" type="curve" smooth="yes"/>
      <point x="398" y="505"/>
      <point x="501" y="460"/>
      <point x="495" y="320" type="curve" smooth="yes"/>
      <point x="490" y="138" type="line"/>
      <point x="491" y="104"/>
      <point x="483" y="75"/>
      <point x="549" y="86" type="curve"/>
      <point x="536" y="-5" type="line"/>
      <point x="430" y="-20"/>
      <point x="381" y="10"/>
      <point x="386" y="142" type="curve" smooth="yes"/>
      <point x="393" y="324" type="line" smooth="yes"/>
      <point x="395" y="396"/>
      <point x="341" y="418"/>
      <point x="282" y="418" type="curve"/>
      <point x="222" y="418"/>
      <point x="174" y="398"/>
      <point x="138" y="347" type="curve"/>
    </contour>
    <contour>
      <point x="436" y="227" type="line"/>
      <point x="347" y="235"/>
      <point x="153" y="237"/>
      <point x="153" y="145" type="curve" smooth="yes"/>
      <point x="153" y="99"/>
      <point x="182" y="71"/>
      <point x="224" y="71" type="curve" smooth="yes"/>
      <point x="304" y="71"/>
      <point x="382" y="137"/>
      <point x="409" y="204" type="curve"/>
      <point x="457" y="191" type="line"/>
      <point x="418" y="92"/>
      <point x="365" y="-13"/>
      <point x="224" y="-13" type="curve" smooth="yes"/>
      <point x="134" y="-13"/>
      <point x="48" y="27"/>
      <point x="48" y="141" type="curve" smooth="yes"/>
      <point x="48" y="278"/>
      <point x="255" y="321"/>
      <point x="444" y="303" type="curve"/>
    </contour>
  </outline>
</glyph>
<glyph name="b" format="1">
  <advance width="570"/>
  <unicode hex="0062"/>
  <outline>
    <contour>
      <point x="172" y="241" type="line"/>
      <point x="172" y="131"/>
      <point x="231" y="69"/>
      <point x="298" y="69" type="curve" smooth="yes"/>
      <point x="375" y="69"/>
      <point x="429" y="139"/>
      <point x="429" y="252" type="curve" smooth="yes"/>
      <point x="429" y="365"/>
      <point x="374" y="428"/>
      <point x="299" y="428" type="curve" smooth="yes"/>
      <point x="218" y="428"/>
      <point x="172" y="352"/>
      <point x="172" y="242" type="curve"/>
      <point x="105" y="285" type="line"/>
      <point x="118" y="415"/>
      <point x="209" y="510"/>
      <point x="322" y="510" type="curve"/>
      <point x="418" y="510"/>
      <point x="525" y="435"/>
      <point x="525" y="252" type="curve" smooth="yes"/>
      <point x="525" y="69"/>
      <point x="417" y="-10"/>
      <point x="313" y="-10" type="curve"/>
      <point x="209" y="-10"/>
      <point x="114" y="87"/>
      <point x="104" y="222" type="curve"/>
    </contour>
    <component base="l" xOffset="15"/>
  </outline>
</glyph>
<glyph name="j" format="1">
  <advance width="212"/>
  <unicode hex="006A"/>
  <outline>
    <contour>
      <point x="58" y="500" type="line"/>
      <point x="160" y="500" type="line"/>
      <point x="160" y="-45" type="line" smooth="yes"/>
      <point x="160" y="-128"/>
      <point x="102" y="-179"/>
      <point x="-10" y="-143" type="curve"/>
      <point x="-5" y="-51" type="line"/>
      <point x="39" y="-63"/>
      <point x="58" y="-50"/>
      <point x="58" y="-16" type="curve" smooth="yes"/>
    </contour>
    <contour>
      <point x="58" y="570" type="line"/>
      <point x="58" y="685" type="line"/>
      <point x="160" y="685" type="line"/>
      <point x="160" y="570" type="line"/>
    </contour>
  </outline>
</glyph>
<glyph name="o" format="1">
  <advance width="564"/>
  <unicode hex="006F"/>
  <outline>
    <contour>
      <point x="282" y="77" type="curve"/>
      <point x="372" y="77"/>
      <point x="422" y="146"/>
      <point x="422" y="249" type="curve" smooth="yes"/>
      <point x="422" y="352"/>
      <point x="372" y="422"/>
      <point x="282" y="422" type="curve"/>
      <point x="192" y="422"/>
      <point x="142" y="352"/>
      <point x="142" y="249" type="curve" smooth="yes"/>
      <point x="142" y="146"/>
      <point x="192" y="77"/>
    </contour>
    <contour>
      <point x="282" y="-10" type="curve" smooth="yes"/>
      <point x="145" y="-10"/>
      <point x="30" y="88"/>
      <point x="30" y="249" type="curve" smooth="yes"/>
      <point x="30" y="410"/>
      <point x="150" y="510"/>
      <point x="282" y="510" type="curve" smooth="yes"/>
      <point x="414" y="510"/>
      <point x="534" y="410"/>
      <point x="534" y="249" type="curve" smooth="yes"/>
      <point x="534" y="88"/>
      <point x="419" y="-10"/>
    </contour>
  </outline>
</glyph>
<glyph name="s" format="1">
  <advance width="491"/>
  <unicode hex="0073"/>
  <outline>
    <contour>
      <point x="376" y="358" type="line"/>
      <point x="349" y="400"/>
      <point x="311" y="421"/>
      <point x="246" y="421" type="curve" smooth="yes"/>
      <point x="192" y="421"/>
      <point x="158" y="400"/>
      <point x="158" y="366" type="curve" smooth="yes"/>
      <point x="158" y="340"/>
      <point x="172" y="321"/>
      <point x="201" y="315" type="curve" smooth="yes"/>
      <point x="303" y="293" type="line" smooth="yes"/>
      <point x="373" y="278"/>
      <point x="455.0" y="238.922535211"/>
      <point x="455" y="146" type="curve"/>
      <point x="455" y="67"/>
      <point x="370" y="-5"/>
      <point x="255" y="-5" type="curve" smooth="yes"/>
      <point x="162" y="-5"/>
      <point x="66" y="40"/>
      <point x="39" y="107" type="curve"/>
      <point x="112" y="161" type="line"/>
      <point x="135" y="115"/>
      <point x="192" y="79"/>
      <point x="258" y="79" type="curve"/>
      <point x="311" y="79"/>
      <point x="354" y="96"/>
      <point x="354" y="138" type="curve"/>
      <point x="354" y="176"/>
      <point x="328" y="199"/>
      <point x="291" y="206" type="curve" smooth="yes"/>
      <point x="185" y="229" type="line" smooth="yes"/>
      <point x="126" y="242"/>
      <point x="66" y="281"/>
      <point x="66" y="367" type="curve"/>
      <point x="66" y="445"/>
      <point x="142" y="505"/>
      <point x="246" y="505" type="curve" smooth="yes"/>
      <point x="344" y="505"/>
      <point x="406" y="471"/>
      <point x="442" y="412" type="curve"/>
    </contour>
  </outline>
</glyph>
<glyph name="z" format="1">
  <advance width="464"/>
  <unicode hex="007A"/>
  <outline>
    <contour>
      <point x="45" y="500" type="line"/>
      <point x="433" y="500" type="line"/>
      <point x="433" y="418" type="line"/>
      <point x="45" y="418" type="line"/>
    </contour>
    <contour>
      <point x="90" y="21" type="line"/>
      <point x="30" y="82" type="line"/>
      <point x="370" y="478" type="line"/>
      <point x="433" y="418" type="line"/>
    </contour>
    <contour>
      <point x="30" y="82" type="line"/>
      <point x="439" y="82" type="line"/>
      <point x="439" y="0" type="line"/>
      <point x="30" y="0" type="line"/>
    </contour>
  </outline>
</glyph>
<glyph name="bar" format="1">
  <advance width="212"/>
  <unicode hex="007C"/>
  <outline>
    <contour>
      <point x="55" y="-185" type="line"/>
      <point x="55" y="685" type="line"/>
      <point x="157" y="685" type="line"/>
      <point x="157" y="-185" type="line"/>
    </contour>
  </outline>
</glyph>
<glyph name="dieresis" format="1">
  <advance width="403"/>
  <unicode hex="00A8"/>
  <outline>
    <contour>
      <point x="233" y="570" type="line"/>
      <point x="233" y="685" type="line"/>
      <point x="335" y="685" type="line"/>
      <point x="335" y="570" type="line"/>
    </contour>
    <contour>
      <point x="55" y="570" type="line"/>
      <point x="55" y="685" type="line"/>
      <point x="157" y="685" type="line"/>
      <point x="157" y="570" type="line"/>
    </contour>
  </outline>
</glyph>
<glyph name="multiply" format="1">
  <advance width="565"/>
  <unicode hex="00D7"/>
  <outline>
    <contour>
      <point x="128" y="370" type="line"/>
      <point x="186" y="428" type="line"/>
      <point x="436" y="178" type="line"/>
      <point x="378" y="120" type="line"/>
    </contour>
    <contour>
      <point x="128" y="178" type="line"/>
      <point x="378" y="428" type="line"/>
      <point x="436" y="370" type="line"/>
      <point x="186" y="120" type="line"/>
    </contour>
  </outline>
</glyph>
<glyph name="ccedilla" format="1">
  <advance width="523"/>
  <unicode hex="00E7"/>
  <outline>
    <contour>
      <point x="280" y="3" type="line"/>
      <point x="224" y="-76" type="line"/>
      <point x="197" y="-73" type="line"/>
      <point x="229.703296703" y="-57.9142857143"/>
      <point x="255" y="-40"/>
      <point x="290" y="-40" type="curve" smooth="yes"/>
      <point x="352" y="-40"/>
      <point x="415.0" y="-71.4434782609"/>
      <point x="415" y="-153" type="curve" smooth="yes"/>
      <point x="415.0" y="-210.0"/>
      <point x="368" y="-274"/>
      <point x="274" y="-274" type="curve" smooth="yes"/>
      <point x="229.286713287" y="-274.0"/>
      <point x="148" y="-253"/>
      <point x="135" y="-193" type="curve"/>
      <point x="199" y="-158" type="line"/>
      <point x="214" y="-193"/>
      <point x="248.728395062" y="-200.0"/>
      <point x="275" y="-200" type="curve" smooth="yes"/>
      <point x="309" y="-200"/>
      <point x="336.0" y="-182.0"/>
      <point x="336" y="-153" type="curve" smooth="yes"/>
      <point x="336" y="-121"/>
      <point x="309" y="-103"/>
      <point x="279" y="-103" type="curve" smooth="yes"/>
      <point x="258" y="-103"/>
      <point x="235" y="-111"/>
      <point x="224" y="-121" type="curve" smooth="yes"/>
      <point x="223" y="-121" type="line"/>
      <point x="149" y="-63" type="line"/>
      <point x="247" y="22" type="line"/>
    </contour>
    <component base="c" xOffset="4"/>
  </outline>
</glyph>
<glyph name="dn_bha" format="1">
  <advance width="557"/>
  <unicode hex="092D"/>
  <outline>
    <contour>
      <point x="103" y="312" type="line"/>
      <point x="103" y="617" type="line" smooth="yes"/>
      <point x="103" y="637"/>
      <point x="89" y="651"/>
      <point x="68" y="651" type="curve" smooth="yes"/>
      <point x="47" y="651"/>
      <point x="29" y="636"/>
      <point x="29" y="617" type="curve" smooth="yes"/>
      <point x="29" y="598"/>
      <point x="46" y="584"/>
      <point x="68" y="584" type="curve" smooth="yes"/>
      <point x="90" y="584"/>
      <point x="103" y="596"/>
      <point x="103" y="617" type="curve"/>
      <point x="185" y="617" type="line"/>
      <point x="185" y="546"/>
      <point x="144" y="502"/>
      <point x="68" y="502" type="curve" smooth="yes"/>
      <point x="-8" y="502"/>
      <point x="-53" y="558"/>
      <point x="-53" y="617" type="curve" smooth="yes"/>
      <point x="-53" y="676"/>
      <point x="-5" y="733"/>
      <point x="68" y="733" type="curve" smooth="yes"/>
      <point x="141" y="733"/>
      <point x="185" y="685"/>
      <point x="185" y="617" type="curve" smooth="yes"/>
      <point x="185" y="312" type="line"/>
    </contour>
    <component base="component_10"/>
    <component base="kana" xOffset="273"/>
  </outline>
</glyph>
<glyph name="component_1" format="1">
  <advance width="501"/>
  <outline>
    <contour>
      <point x="393" y="685" type="line"/>
      <point x="393" y="753"/>
      <point x="330" y="780"/>
      <point x="250" y="780" type="curve" smooth="yes"/>
      <point x="99" y="780"/>
      <point x="6" y="827"/>
      <point x="6" y="950" type="curve"/>
      <point x="108" y="950" type="line"/>
      <point x="108" y="885"/>
      <point x="168" y="862"/>
      <point x="250" y="862" type="curve" smooth="yes"/>
      <point x="394" y="862"/>
      <point x="495" y="814"/>
      <point x="495" y="685" type="curve"/>
    </contour>
  </outline>
</glyph>
<glyph name="component_6" format="1">
  <advance width="500"/>
  <outline>
    <contour>
      <point x="98" y="685" type="line"/>
      <point x="402" y="685" type="line"/>
      <point x="402" y="603" type="line"/>
      <point x="98" y="603" type="line"/>
    </contour>
  </outline>
</glyph>
<glyph name="component_7" format="1">
  <advance width="630"/>
  <outline>
    <contour>
      <point x="595" y="250" type="line"/>
      <point x="602" y="249"/>
      <point x="610" y="249"/>
      <point x="615" y="249" type="curve" smooth="yes"/>
      <point x="685" y="249"/>
      <point x="720" y="294"/>
      <point x="720" y="359" type="curve"/>
      <point x="720" y="414"/>
      <point x="680" y="458"/>
      <point x="616" y="458" type="curve"/>
      <point x="565" y="457"/>
      <point x="509" y="419"/>
      <point x="509" y="349" type="curve"/>
      <point x="418" y="356" type="line"/>
      <point x="418" y="463"/>
      <point x="508" y="540"/>
      <point x="618" y="540" type="curve"/>
      <point x="724" y="540"/>
      <point x="815" y="478"/>
      <point x="815" y="356" type="curve"/>
      <point x="815" y="230"/>
      <point x="743" y="160"/>
      <point x="618" y="160" type="curve" smooth="yes"/>
      <point x="601" y="160"/>
      <point x="581" y="162"/>
      <point x="561" y="167" type="curve"/>
    </contour>
  </outline>
</glyph>
<glyph name="component_8" format="1">
  <advance width="630"/>
  <outline>
    <contour>
      <point x="305" y="266" type="curve"/>
      <point x="395.0" y="266.0"/>
      <point x="407" y="351"/>
      <point x="407" y="388" type="curve" smooth="yes"/>
      <point x="407" y="663" type="line"/>
      <point x="499" y="663" type="line"/>
      <point x="499" y="388" type="line" smooth="yes"/>
      <point x="499" y="325"/>
      <point x="473.0" y="184.0"/>
      <point x="305" y="184" type="curve"/>
      <point x="136.0" y="184.0"/>
      <point x="111" y="325"/>
      <point x="111" y="388" type="curve"/>
      <point x="111" y="663" type="line"/>
      <point x="203" y="663" type="line"/>
      <point x="203" y="388" type="line" smooth="yes"/>
      <point x="203" y="351"/>
      <point x="215.0" y="266.0"/>
    </contour>
  </outline>
</glyph>
<glyph name="component_9" format="1">
  <advance width="630"/>
  <outline>
    <contour>
      <point x="457" y="315" type="line"/>
      <point x="141" y="108" type="line"/>
      <point x="90" y="181" type="line"/>
      <point x="406" y="388" type="line"/>
    </contour>
  </outline>
</glyph>
<glyph name="dn_a.alt1" format="1">
  <advance width="745"/>
  <outline>
    <contour>
      <point x="356" y="270" type="line"/>
      <point x="135" y="125" type="line"/>
      <point x="84" y="198" type="line"/>
      <point x="164" y="251" type="line"/>
      <point x="261" y="314" type="line"/>
      <point x="305" y="343" type="line"/>
      <point x="311" y="335" type="line"/>
    </contour>
    <contour>
      <point x="182" y="353" type="curve"/>
      <point x="149" y="353"/>
      <point x="127" y="342"/>
      <point x="112" y="326" type="curve"/>
      <point x="45" y="386" type="line"/>
      <point x="74" y="415"/>
      <point x="118" y="441"/>
      <point x="182" y="441" type="curve"/>
      <point x="279" y="441"/>
      <point x="329" y="388"/>
      <point x="354" y="336" type="curve"/>
      <point x="270" y="300" type="line"/>
      <point x="256" y="329"/>
      <point x="230" y="353"/>
    </contour>
    <component base="dn_pa.ra" xOffset="145"/>
    <component base="component_6" xOffset="-108"/>
  </outline>
</glyph>
<glyph name="dn_bha.alt1" format="1">
  <advance width="1107"/>
  <outline>
    <contour>
      <point x="50" y="936" type="line"/>
      <point x="50.0" y="1044.54"/>
      <point x="98.86" y="1118.0"/>
      <point x="194" y="1118" type="curve" smooth="yes"/>
      <point x="262.34" y="1118.0"/>
      <point x="322.12" y="1092.9"/>
      <point x="365.0" y="1046.0" type="curve" smooth="yes" name="inserted"/>
      <point x="407.88" y="999.1"/>
      <point x="433.0" y="929.44"/>
      <point x="433" y="841" type="curve" smooth="yes"/>
      <point x="433" y="593" type="line"/>
      <point x="787" y="593" type="line"/>
      <point x="787" y="998" type="line"/>
      <point x="554" y="998" type="line"/>
      <point x="554" y="1118" type="line"/>
      <point x="1127" y="1118" type="line"/>
      <point x="1127" y="998" type="line"/>
      <point x="907" y="998" type="line"/>
      <point x="907" y="0" type="line"/>
      <point x="787" y="0" type="line"/>
      <point x="787" y="473" type="line"/>
      <point x="465" y="473" type="line" smooth="yes"/>
      <point x="439.54" y="473.0"/>
      <point x="433.0" y="454.16"/>
      <point x="433" y="422" type="curve" smooth="yes"/>
      <point x="433" y="352" type="line" smooth="yes"/>
      <point x="433.0" y="346.64"/>
      <point x="431.04" y="332.23"/>
      <point x="423.0" y="319.5" type="curve" smooth="yes" name="inserted"/>
      <point x="414.96" y="306.77"/>
      <point x="400.46" y="295.0"/>
      <point x="375" y="295" type="curve" smooth="yes"/>
      <point x="341.5" y="295.0"/>
      <point x="303.52" y="310.71"/>
      <point x="266.0" y="335.5" type="curve" smooth="yes" name="inserted"/>
      <point x="228.48" y="360.29"/>
      <point x="192.8" y="392.99"/>
      <point x="166.0" y="428.5" type="curve" smooth="yes" name="inserted"/>
      <point x="139.2" y="464.01"/>
      <point x="122.0" y="501.84"/>
      <point x="122" y="534" type="curve" smooth="yes"/>
      <point x="122.0" y="568.84"/>
      <point x="144.12" y="593.0"/>
      <point x="187" y="593" type="curve" smooth="yes"/>
      <point x="313" y="593" type="line"/>
      <point x="313" y="862" type="line" smooth="yes"/>
      <point x="313.0" y="910.24"/>
      <point x="299.59" y="944.39"/>
      <point x="281.5" y="966.5" type="curve" smooth="yes" name="inserted"/>
      <point x="263.41" y="988.61"/>
      <point x="239.44" y="998.0"/>
      <point x="218" y="998" type="curve" smooth="yes"/>
      <point x="187.18" y="998.0"/>
      <point x="170.0" y="967.9"/>
      <point x="170" y="921" type="curve"/>
    </contour>
  </outline>
</glyph>
<glyph name="dn_bha.ra.alt1" format="1">
  <advance width="1177"/>
  <outline>
    <contour>
      <point x="225" y="0" type="line"/>
      <point x="801" y="473" type="line"/>
      <point x="535" y="473" type="line" smooth="yes"/>
      <point x="509.54" y="473.0"/>
      <point x="503.0" y="454.16"/>
      <point x="503" y="422" type="curve" smooth="yes"/>
      <point x="503" y="352" type="line" smooth="yes"/>
      <point x="503.0" y="346.64"/>
      <point x="501.04" y="332.23"/>
      <point x="493.0" y="319.5" type="curve" smooth="yes" name="inserted"/>
      <point x="484.96" y="306.77"/>
      <point x="470.46" y="295.0"/>
      <point x="445" y="295" type="curve" smooth="yes"/>
      <point x="411.5" y="295.0"/>
      <point x="373.52" y="310.71"/>
      <point x="336.0" y="335.5" type="curve" smooth="yes" name="inserted"/>
      <point x="298.48" y="360.29"/>
      <point x="262.8" y="392.99"/>
      <point x="236.0" y="428.5" type="curve" smooth="yes" name="inserted"/>
      <point x="209.2" y="464.01"/>
      <point x="192.0" y="501.84"/>
      <point x="192" y="534" type="curve" smooth="yes"/>
      <point x="192.0" y="568.84"/>
      <point x="214.12" y="593.0"/>
      <point x="257" y="593" type="curve" smooth="yes"/>
      <point x="383" y="593" type="line"/>
      <point x="383" y="862" type="line" smooth="yes"/>
      <point x="383.0" y="910.24"/>
      <point x="369.59" y="944.39"/>
      <point x="351.5" y="966.5" type="curve" smooth="yes" name="inserted"/>
      <point x="333.41" y="988.61"/>
      <point x="309.44" y="998.0"/>
      <point x="288" y="998" type="curve" smooth="yes"/>
      <point x="257.18" y="998.0"/>
      <point x="240.0" y="967.9"/>
      <point x="240" y="921" type="curve"/>
      <point x="120" y="936" type="line"/>
      <point x="120.0" y="1044.54"/>
      <point x="168.86" y="1118.0"/>
      <point x="264" y="1118" type="curve" smooth="yes"/>
      <point x="332.34" y="1118.0"/>
      <point x="392.12" y="1092.9"/>
      <point x="435.0" y="1046.0" type="curve" smooth="yes" name="inserted"/>
      <point x="477.88" y="999.1"/>
      <point x="503.0" y="929.44"/>
      <point x="503" y="841" type="curve" smooth="yes"/>
      <point x="503" y="593" type="line"/>
      <point x="857" y="593" type="line"/>
      <point x="857" y="998" type="line"/>
      <point x="624" y="998" type="line"/>
      <point x="624" y="1118" type="line"/>
      <point x="1197" y="1118" type="line"/>
      <point x="1197" y="998" type="line"/>
      <point x="977" y="998" type="line"/>
      <point x="977" y="0" type="line"/>
      <point x="857" y="0" type="line"/>
      <point x="857" y="376" type="line"/>
      <point x="308" y="-94" type="line"/>
    </contour>
  </outline>
</glyph>
<glyph name="dn_ma.na" format="1">
  <advance width="1045"/>
  <outline>
    <contour>
      <point x="1065" y="998" type="line"/>
      <point x="845" y="998" type="line"/>
      <point x="845" y="0" type="line"/>
      <point x="725" y="0" type="line"/>
      <point x="725" y="403" type="line"/>
      <point x="392" y="179" type="line" smooth="yes"/>
      <point x="383.29" y="172.97" name="inserted"/>
      <point x="379.0" y="165.71"/>
      <point x="379" y="157" type="curve" smooth="yes"/>
      <point x="379.0" y="146.28" name="inserted"/>
      <point x="384.61" y="133.74"/>
      <point x="396" y="119" type="curve"/>
      <point x="396.0" y="117.66"/>
      <point x="400.3" y="110.04"/>
      <point x="407" y="102" type="curve"/>
      <point x="419" y="86" type="line"/>
      <point x="421.68" y="81.98"/>
      <point x="430.0" y="68.42"/>
      <point x="430" y="51" type="curve" smooth="yes"/>
      <point x="430.0" y="36.26"/>
      <point x="423.76" y="20.74"/>
      <point x="405" y="6" type="curve" smooth="yes"/>
      <point x="368.82" y="-20.8"/>
      <point x="311.3" y="-33.0"/>
      <point x="251" y="-33" type="curve" smooth="yes"/>
      <point x="214.82" y="-33.0"/>
      <point x="179.82" y="-27.55"/>
      <point x="149.0" y="-17.5" type="curve" smooth="yes" name="inserted"/>
      <point x="118.18" y="-7.45"/>
      <point x="93.08" y="8.56"/>
      <point x="77" y="30" type="curve" smooth="yes"/>
      <point x="68.96" y="40.72" name="inserted"/>
      <point x="65.0" y="52.27"/>
      <point x="65" y="65" type="curve" smooth="yes"/>
      <point x="65.0" y="83.76"/>
      <point x="73.22" y="101.26"/>
      <point x="96" y="116" type="curve" smooth="yes"/>
      <point x="634" y="473" type="line"/>
      <point x="403" y="473" type="line" smooth="yes"/>
      <point x="377.54" y="473.0"/>
      <point x="371.0" y="454.16"/>
      <point x="371" y="422" type="curve" smooth="yes"/>
      <point x="371" y="382" type="line" smooth="yes"/>
      <point x="371.0" y="376.64"/>
      <point x="369.04" y="368.04"/>
      <point x="361.0" y="360.0" type="curve" smooth="yes" name="inserted"/>
      <point x="352.96" y="351.96"/>
      <point x="338.46" y="345.0"/>
      <point x="313" y="345" type="curve" smooth="yes"/>
      <point x="263.42" y="345.0"/>
      <point x="201.09" y="368.16"/>
      <point x="149.5" y="403.0" type="curve" smooth="yes" name="inserted"/>
      <point x="97.91" y="437.84"/>
      <point x="60.0" y="485.76"/>
      <point x="60" y="534" type="curve" smooth="yes"/>
      <point x="60.0" y="568.84"/>
      <point x="82.12" y="593.0"/>
      <point x="125" y="593" type="curve" smooth="yes"/>
      <point x="251" y="593" type="line"/>
      <point x="251" y="998" type="line"/>
      <point x="0" y="998" type="line"/>
      <point x="0" y="1118" type="line"/>
      <point x="1065" y="1118" type="line"/>
    </contour>
    <contour>
      <point x="725" y="593" type="line"/>
      <point x="725" y="998" type="line"/>
      <point x="371" y="998" type="line"/>
      <point x="371" y="593" type="line"/>
    </contour>
    <contour>
      <point x="725" y="473" type="line"/>
      <point x="707" y="473" type="line"/>
      <point x="725" y="436" type="line"/>
    </contour>
  </outline>
</glyph>
